<mxfile host="app.diagrams.net" agent="Mozilla/5.0 (Windows NT 10.0; Win64; x64) AppleWebKit/537.36 (KHTML, like Gecko) Chrome/131.0.0.0 Safari/537.36" version="25.0.3">
  <diagram id="C5RBs43oDa-KdzZeNtuy" name="Page-1">
    <mxGraphModel dx="2117" dy="530" grid="1" gridSize="10" guides="1" tooltips="1" connect="1" arrows="1" fold="1" page="1" pageScale="1" pageWidth="827" pageHeight="1169" math="0" shadow="0">
      <root>
        <mxCell id="WIyWlLk6GJQsqaUBKTNV-0" />
        <mxCell id="WIyWlLk6GJQsqaUBKTNV-1" parent="WIyWlLk6GJQsqaUBKTNV-0" />
        <mxCell id="RRXDrDJ5DZFSQs_mAf9J-13" style="edgeStyle=orthogonalEdgeStyle;rounded=0;orthogonalLoop=1;jettySize=auto;html=1;exitX=0.5;exitY=1;exitDx=0;exitDy=0;exitPerimeter=0;entryX=0.5;entryY=0;entryDx=0;entryDy=0;" edge="1" parent="WIyWlLk6GJQsqaUBKTNV-1" source="RRXDrDJ5DZFSQs_mAf9J-0" target="RRXDrDJ5DZFSQs_mAf9J-1">
          <mxGeometry relative="1" as="geometry" />
        </mxCell>
        <mxCell id="RRXDrDJ5DZFSQs_mAf9J-0" value="START" style="strokeWidth=2;html=1;shape=mxgraph.flowchart.start_1;whiteSpace=wrap;" vertex="1" parent="WIyWlLk6GJQsqaUBKTNV-1">
          <mxGeometry x="355" y="40" width="100" height="60" as="geometry" />
        </mxCell>
        <mxCell id="RRXDrDJ5DZFSQs_mAf9J-11" style="edgeStyle=orthogonalEdgeStyle;rounded=0;orthogonalLoop=1;jettySize=auto;html=1;exitX=0.5;exitY=1;exitDx=0;exitDy=0;entryX=0.5;entryY=0;entryDx=0;entryDy=0;" edge="1" parent="WIyWlLk6GJQsqaUBKTNV-1" source="RRXDrDJ5DZFSQs_mAf9J-1" target="RRXDrDJ5DZFSQs_mAf9J-2">
          <mxGeometry relative="1" as="geometry" />
        </mxCell>
        <mxCell id="RRXDrDJ5DZFSQs_mAf9J-1" value="READ AGE" style="shape=parallelogram;html=1;strokeWidth=2;perimeter=parallelogramPerimeter;whiteSpace=wrap;rounded=1;arcSize=12;size=0.23;" vertex="1" parent="WIyWlLk6GJQsqaUBKTNV-1">
          <mxGeometry x="290" y="160" width="230" height="60" as="geometry" />
        </mxCell>
        <mxCell id="RRXDrDJ5DZFSQs_mAf9J-2" value="RESULT = (AGE &amp;gt;= 18 AND AGE &amp;lt;= 45)" style="rounded=1;whiteSpace=wrap;html=1;absoluteArcSize=1;arcSize=14;strokeWidth=2;" vertex="1" parent="WIyWlLk6GJQsqaUBKTNV-1">
          <mxGeometry x="260" y="270" width="290" height="70" as="geometry" />
        </mxCell>
        <mxCell id="RRXDrDJ5DZFSQs_mAf9J-5" style="edgeStyle=orthogonalEdgeStyle;rounded=0;orthogonalLoop=1;jettySize=auto;html=1;exitX=1;exitY=0.5;exitDx=0;exitDy=0;exitPerimeter=0;" edge="1" parent="WIyWlLk6GJQsqaUBKTNV-1" source="RRXDrDJ5DZFSQs_mAf9J-3" target="RRXDrDJ5DZFSQs_mAf9J-4">
          <mxGeometry relative="1" as="geometry" />
        </mxCell>
        <mxCell id="RRXDrDJ5DZFSQs_mAf9J-6" value="YES" style="edgeLabel;html=1;align=center;verticalAlign=middle;resizable=0;points=[];" vertex="1" connectable="0" parent="RRXDrDJ5DZFSQs_mAf9J-5">
          <mxGeometry x="-0.4779" y="-2" relative="1" as="geometry">
            <mxPoint as="offset" />
          </mxGeometry>
        </mxCell>
        <mxCell id="RRXDrDJ5DZFSQs_mAf9J-8" style="edgeStyle=orthogonalEdgeStyle;rounded=0;orthogonalLoop=1;jettySize=auto;html=1;exitX=0.5;exitY=1;exitDx=0;exitDy=0;exitPerimeter=0;entryX=0.5;entryY=1;entryDx=0;entryDy=0;" edge="1" parent="WIyWlLk6GJQsqaUBKTNV-1" source="RRXDrDJ5DZFSQs_mAf9J-3" target="RRXDrDJ5DZFSQs_mAf9J-7">
          <mxGeometry relative="1" as="geometry" />
        </mxCell>
        <mxCell id="RRXDrDJ5DZFSQs_mAf9J-14" value="NO" style="edgeLabel;html=1;align=center;verticalAlign=middle;resizable=0;points=[];" vertex="1" connectable="0" parent="RRXDrDJ5DZFSQs_mAf9J-8">
          <mxGeometry x="-0.1304" y="-3" relative="1" as="geometry">
            <mxPoint as="offset" />
          </mxGeometry>
        </mxCell>
        <mxCell id="RRXDrDJ5DZFSQs_mAf9J-3" value="RESULT = TRUE?" style="strokeWidth=2;html=1;shape=mxgraph.flowchart.decision;whiteSpace=wrap;" vertex="1" parent="WIyWlLk6GJQsqaUBKTNV-1">
          <mxGeometry x="322.5" y="400" width="165" height="140" as="geometry" />
        </mxCell>
        <mxCell id="RRXDrDJ5DZFSQs_mAf9J-4" value="PRINT &quot;AGE VALID&quot;" style="shape=parallelogram;html=1;strokeWidth=2;perimeter=parallelogramPerimeter;whiteSpace=wrap;rounded=1;arcSize=12;size=0.23;" vertex="1" parent="WIyWlLk6GJQsqaUBKTNV-1">
          <mxGeometry x="540" y="600" width="240" height="60" as="geometry" />
        </mxCell>
        <mxCell id="RRXDrDJ5DZFSQs_mAf9J-10" style="edgeStyle=orthogonalEdgeStyle;rounded=0;orthogonalLoop=1;jettySize=auto;html=1;exitX=0.5;exitY=0;exitDx=0;exitDy=0;entryX=0.5;entryY=0;entryDx=0;entryDy=0;" edge="1" parent="WIyWlLk6GJQsqaUBKTNV-1" source="RRXDrDJ5DZFSQs_mAf9J-7" target="RRXDrDJ5DZFSQs_mAf9J-1">
          <mxGeometry relative="1" as="geometry" />
        </mxCell>
        <mxCell id="RRXDrDJ5DZFSQs_mAf9J-7" value="PRINT &quot;INVALID AGE , PLEASE ENTER AGE &quot;" style="shape=parallelogram;html=1;strokeWidth=2;perimeter=parallelogramPerimeter;whiteSpace=wrap;rounded=1;arcSize=12;size=0.23;" vertex="1" parent="WIyWlLk6GJQsqaUBKTNV-1">
          <mxGeometry x="-130" y="530" width="400" height="60" as="geometry" />
        </mxCell>
        <mxCell id="RRXDrDJ5DZFSQs_mAf9J-12" style="edgeStyle=orthogonalEdgeStyle;rounded=0;orthogonalLoop=1;jettySize=auto;html=1;exitX=0.5;exitY=1;exitDx=0;exitDy=0;entryX=0.5;entryY=0;entryDx=0;entryDy=0;entryPerimeter=0;" edge="1" parent="WIyWlLk6GJQsqaUBKTNV-1" source="RRXDrDJ5DZFSQs_mAf9J-2" target="RRXDrDJ5DZFSQs_mAf9J-3">
          <mxGeometry relative="1" as="geometry" />
        </mxCell>
        <mxCell id="RRXDrDJ5DZFSQs_mAf9J-15" value="END" style="strokeWidth=2;html=1;shape=mxgraph.flowchart.terminator;whiteSpace=wrap;" vertex="1" parent="WIyWlLk6GJQsqaUBKTNV-1">
          <mxGeometry x="322.5" y="720" width="100" height="60" as="geometry" />
        </mxCell>
        <mxCell id="RRXDrDJ5DZFSQs_mAf9J-16" style="edgeStyle=orthogonalEdgeStyle;rounded=0;orthogonalLoop=1;jettySize=auto;html=1;exitX=0.5;exitY=1;exitDx=0;exitDy=0;entryX=1;entryY=0.5;entryDx=0;entryDy=0;entryPerimeter=0;" edge="1" parent="WIyWlLk6GJQsqaUBKTNV-1" source="RRXDrDJ5DZFSQs_mAf9J-4" target="RRXDrDJ5DZFSQs_mAf9J-15">
          <mxGeometry relative="1" as="geometry" />
        </mxCell>
      </root>
    </mxGraphModel>
  </diagram>
</mxfile>
